HIERARCHY
ROOT SpineBase
{
  OFFSET 0.000000 0.000000 0.000000
  CHANNELS 6 Xposition Yposition Zposition Zrotation Xrotation Yrotation
  JOINT SpineMid
  {
    OFFSET 0.000000 29.630406 0.000000
    CHANNELS 3 Zrotation Xrotation Yrotation
    JOINT SpineShoulder
    {
      OFFSET -0.179887 22.004576 -0.741622
      CHANNELS 3 Zrotation Xrotation Yrotation
      JOINT Neck
      {
        OFFSET -0.117279 7.292954 -0.579460
        CHANNELS 3 Zrotation Xrotation Yrotation
        JOINT Head
        {
          OFFSET -0.034925 7.960525 5.662812
          CHANNELS 3 Zrotation Xrotation Yrotation
          End Site
          {
            OFFSET 0 0 0
          }
        }
      }
      JOINT ShoulderLeft
      {
        OFFSET -6.247782 -4.360320 -7.078261
        CHANNELS 3 Zrotation Xrotation Yrotation
        JOINT ElbowLeft
        {
          OFFSET -5.962985 -26.189555 -0.971513
          CHANNELS 3 Zrotation Xrotation Yrotation
          JOINT WristLeft
          {
            OFFSET -5.300420 -21.506354 3.095662
            CHANNELS 3 Zrotation Xrotation Yrotation
            JOINT HandLeft
            {
              OFFSET -0.798155 -6.378528 1.199445
              CHANNELS 3 Zrotation Xrotation Yrotation
              JOINT HandTipLeft
              {
                OFFSET -0.916764 -7.010608 -0.687819
                CHANNELS 3 Zrotation Xrotation Yrotation
                End Site
                {
                  OFFSET 0 0 0
                }
              }
              JOINT ThumbLeft
              {
                OFFSET -3.732438 1.241876 0.322131
                CHANNELS 3 Zrotation Xrotation Yrotation
                End Site
                {
                  OFFSET 0 0 0
                }
              }
            }
          }
        }
      }
      JOINT ShoulderRight
      {
        OFFSET 10.796879 -3.656664 2.788926
        CHANNELS 3 Zrotation Xrotation Yrotation
        JOINT ElbowRight
        {
          OFFSET -18.666945 -19.091192 -9.016689
          CHANNELS 3 Zrotation Xrotation Yrotation
          JOINT WristRight
          {
            OFFSET -9.443294 -26.024699 2.285413
            CHANNELS 3 Zrotation Xrotation Yrotation
            JOINT HandRight
            {
              OFFSET -1.887464 -10.456920 0.406302
              CHANNELS 3 Zrotation Xrotation Yrotation
              JOINT HandTipRight
              {
                OFFSET -0.741514 -6.447695 -1.185845
                CHANNELS 3 Zrotation Xrotation Yrotation
                End Site
                {
                  OFFSET 0 0 0
                }
              }
              JOINT ThumbRight
              {
                OFFSET 3.741995 -0.171219 -2.271584
                CHANNELS 3 Zrotation Xrotation Yrotation
                End Site
                {
                  OFFSET 0 0 0
                }
              }
            }
          }
        }
      }
    }
  }
  JOINT HipLeft
  {
    OFFSET -5.987310 1.860608 -4.956941
    CHANNELS 3 Zrotation Xrotation Yrotation
    JOINT KneeLeft
    {
      OFFSET 0.321181 -35.035594 -0.946381
      CHANNELS 3 Zrotation Xrotation Yrotation
      JOINT AnkleLeft
      {
        OFFSET 17.047651 -30.575921 7.635708
        CHANNELS 3 Zrotation Xrotation Yrotation
        JOINT FootLeft
        {
          OFFSET -4.085478 -9.248169 -7.698554
          CHANNELS 3 Zrotation Xrotation Yrotation
          End Site
          {
            OFFSET 0 0 0
          }
        }
      }
    }
  }
  JOINT HipRight
  {
    OFFSET 4.735757 0.349011 -1.545354
    CHANNELS 3 Zrotation Xrotation Yrotation
    JOINT KneeRight
    {
      OFFSET -2.907440 -39.679569 -1.861223
      CHANNELS 3 Zrotation Xrotation Yrotation
      JOINT AnkleRight
      {
        OFFSET 4.036177 -33.449639 -3.831192
        CHANNELS 3 Zrotation Xrotation Yrotation
        JOINT FootRight
        {
          OFFSET -2.358498 -5.978643 1.578711
          CHANNELS 3 Zrotation Xrotation Yrotation
          End Site
          {
            OFFSET 0 0 0
          }
        }
      }
    }
  }
}
MOTION
Frames: 6
Frame Time: 0.033333
52.394051 79.042620 290.026321 -0.000000 0.000000 -17.648679 -0.000000 0.000000 17.648679 -0.000000 0.000000 0.000000 -0.000000 0.000000 0.000000 0.000000 0.000000 0.000000 -0.000000 0.000000 0.000000 -0.000000 0.000000 0.000000 -0.000000 0.000000 0.000000 -0.000000 0.000000 0.000000 0.000000 0.000000 0.000000 0.000000 0.000000 0.000000 -0.000000 0.000000 0.000000 -0.000000 0.000000 0.000000 -0.000000 0.000000 0.000000 -0.000000 0.000000 0.000000 0.000000 0.000000 0.000000 0.000000 0.000000 0.000000 -0.000000 0.000000 17.648679 -0.000000 0.000000 0.000000 -0.000000 0.000000 0.000000 0.000000 0.000000 0.000000 -0.000000 0.000000 17.648679 -0.000000 0.000000 0.000000 -0.000000 0.000000 0.000000 0.000000 0.000000 0.000000
52.283859 79.203890 289.983373 0.067387 -0.023850 -17.977185 -0.071458 0.001887 17.977201 -0.000000 0.000000 0.000000 -0.610629 -0.475274 0.431044 0.000000 0.000000 0.000000 1.020872 0.271987 -0.102420 -1.020396 -0.273768 0.097559 0.847090 3.295588 -0.279341 -3.125348 -3.977275 0.397390 0.000000 0.000000 0.000000 0.000000 0.000000 0.000000 1.133761 -0.571635 0.029460 -1.110231 1.393196 -0.314676 -0.018784 -0.821205 0.295998 -4.058622 -0.957757 0.820879 0.000000 0.000000 0.000000 0.000000 0.000000 0.000000 -0.071458 0.001887 17.977201 1.534562 -0.192173 0.276494 -3.811593 2.666833 0.583637 0.000000 0.000000 0.000000 -0.071458 0.001887 17.977201 -0.000000 0.000000 0.000000 -0.000000 0.000000 0.000000 0.000000 0.000000 0.000000
52.176527 79.334591 289.942163 0.123740 -0.051545 -18.260807 -0.133660 0.010176 18.260874 -0.000000 0.000000 0.000000 -1.119156 -0.835497 0.788435 0.000000 0.000000 0.000000 1.903432 0.492525 -0.191633 -1.901846 -0.498616 0.175174 1.563993 5.771027 -0.513205 -5.678424 -6.925373 0.449223 0.000000 0.000000 0.000000 0.000000 0.000000 0.000000 2.048657 -1.029591 0.058748 -2.124235 2.660363 -0.618046 1.200300 -1.302429 0.614611 -8.660589 -2.231578 1.447065 0.000000 0.000000 0.000000 0.000000 0.000000 0.000000 -0.030626 -0.984262 18.258570 3.059645 0.640952 0.477806 -6.969368 4.816524 1.115744 0.000000 0.000000 0.000000 -0.133660 0.010176 18.260874 -0.000000 0.000000 0.000000 -0.000000 0.000000 0.000000 0.000000 0.000000 0.000000
52.072056 79.434723 289.902688 0.168833 -0.083058 -18.501720 -0.186464 0.025189 18.501884 -0.000000 0.000000 0.000000 -1.531208 -1.082308 1.077366 0.000000 0.000000 0.000000 2.645970 0.661873 -0.265496 -2.643057 -0.673418 0.234675 2.151437 7.480221 -0.683386 -7.693171 -8.887024 0.328810 0.000000 0.000000 0.000000 0.000000 0.000000 0.000000 2.742723 -1.373242 0.082438 -3.045317 3.794967 -0.908415 2.384651 -2.442352 1.090013 -12.501116 -2.771266 1.907373 0.000000 0.000000 0.000000 0.000000 0.000000 0.000000 -0.004912 -1.308702 18.498575 4.171778 0.891820 0.652687 -9.469073 6.467091 1.549679 0.000000 0.000000 0.000000 -0.186464 0.025189 18.501884 -0.000000 0.000000 0.000000 -0.000000 0.000000 0.000000 0.000000 0.000000 0.000000
51.970444 79.504286 289.864950 0.202486 -0.118345 -18.701820 -0.229742 0.047169 18.702124 -0.000000 0.000000 0.000000 -1.851065 -1.216715 1.301766 0.000000 0.000000 0.000000 3.247369 0.780390 -0.322300 -3.955114 -0.389035 0.066779 3.290198 8.075633 -0.551096 -9.183905 -9.915978 0.156766 0.000000 0.000000 0.000000 0.000000 0.000000 0.000000 3.214865 -1.602441 0.096421 -3.875857 4.790995 -1.184168 4.007783 -3.947972 1.720334 -16.043321 -2.833498 2.297650 0.000000 0.000000 0.000000 0.000000 0.000000 0.000000 0.045957 -1.545006 18.697827 4.997851 1.118486 0.792289 -11.310555 7.640241 1.852706 0.000000 0.000000 0.000000 -0.229742 0.047169 18.702124 0.599746 -0.752500 -0.155575 0.242440 0.694281 0.399602 0.000000 0.000000 0.000000
51.871693 79.543279 289.828948 0.224572 -0.157342 -18.862751 -0.263381 0.076286 18.863235 -0.000000 0.000000 0.000000 -2.081723 -1.238990 1.464375 0.000000 0.000000 0.000000 3.706970 0.848460 -0.360760 -4.433833 -0.262507 0.042609 3.637296 8.203800 -0.495889 -10.157330 -10.059824 0.008322 0.000000 0.000000 0.000000 0.000000 0.000000 0.000000 3.464559 -1.717237 0.097934 -4.616772 5.642799 -1.444013 6.105684 -5.838836 2.546283 -19.320089 -2.371935 2.689557 0.000000 0.000000 0.000000 0.000000 0.000000 0.000000 0.121881 -1.704007 18.857819 5.532471 1.331241 0.900071 -12.495448 8.354860 2.003683 0.000000 0.000000 0.000000 -0.263381 0.076286 18.863235 0.766944 -0.893381 -0.189682 0.055157 0.878280 0.413422 0.000000 0.000000 0.000000
